<?xml version="1.0" encoding="utf-8"?>
<svg version="1.1" id="NadiriTech_Favicon_N" xmlns="http://www.w3.org/2000/svg" xmlns:xlink="http://www.w3.org/1999/xlink" 
	 x="0px" y="0px" viewBox="0 0 128 128" style="enable-background:new 0 0 128 128;" xml:space="preserve">
<style type="text/css">
	.nt0{fill:#2C3E50;} /* Dark Navy Base (Squircle) */
	.nt1{fill:#3498DB;} /* Nadiri Blue (Primary) */
</style>
<g>
	<path class="nt0" d="M128,64c0,42.7-21.3,64-64,64S0,106.7,0,64S21.3,0,64,0S128,21.3,128,64z"/>
	
	<g>
		<path class="nt1" d="M36,36h12c2.2,0,4,1.8,4,4v48c0,2.2-1.8,4-4,4h-8c-4.4,0-8-3.6-8-8V40C32,37.8,33.8,36,36,36z"/>
		
		<path class="nt1" d="M52,40c0-2.2,1.8-4,4-4h4.8c1.5,0,2.9,0.8,3.6,2.1l23.1,43.3c1,1.8,3.6,1.4,4-0.6l0.6-2.8c0.6-2.6,3.1-4.1,5.6-3.3l1.8,0.6c2.4,0.8,3.8,3.3,3,5.6L91.6,90c-0.8,2.4-3.3,3.8-5.6,3h-4.8c-1.5,0-2.9-0.8-3.6-2.1L54.4,47.7c-1-1.8-3.6-1.4-4,0.6l-0.6,2.8c-0.6,2.6-3.1,4.1-5.6,3.3l-1.8-0.6C40,53,38.6,50.5,39.4,48.2L52,40z"/>
		
		<path class="nt1" d="M84,36h8c4.4,0,8,3.6,8,8v44c0,4.4-3.6,8-8,8h-12c-2.2,0-4-1.8-4-4V40C76,37.8,77.8,36,80,36H84z"/>
	</g>
</g>
</svg>